<svg xmlns="http://www.w3.org/2000/svg" width="32" height="28" viewBox="0 0 32 28"><defs><style>.a{fill:#8d8d8d;}</style></defs><path class="a" d="M1.143,65.143H30.857A1.143,1.143,0,0,0,32,64V61.143A1.143,1.143,0,0,0,30.857,60H1.143A1.143,1.143,0,0,0,0,61.143V64A1.143,1.143,0,0,0,1.143,65.143Zm0,11.429H30.857A1.143,1.143,0,0,0,32,75.429V72.571a1.143,1.143,0,0,0-1.143-1.143H1.143A1.143,1.143,0,0,0,0,72.571v2.857A1.143,1.143,0,0,0,1.143,76.571ZM1.143,88H30.857A1.143,1.143,0,0,0,32,86.857V84a1.143,1.143,0,0,0-1.143-1.143H1.143A1.143,1.143,0,0,0,0,84v2.857A1.143,1.143,0,0,0,1.143,88Z" transform="translate(0 -60)"/></svg>